<svg width="12" height="12" viewBox="0 0 12 12" fill="none" xmlns="http://www.w3.org/2000/svg">
<mask id="path-1-inside-1_90_9" fill="white">
<path fill-rule="evenodd" clip-rule="evenodd" d="M0.0712997 6.92846C0.517623 9.80123 3.00199 11.9999 5.99988 11.9999C9.31359 11.9999 11.9999 9.31359 11.9999 5.99988C11.9999 3.00199 9.80123 0.517623 6.92846 0.0712997C6.97548 0.373938 6.99988 0.684059 6.99988 0.999878C6.99988 4.31359 4.31359 6.99988 0.999878 6.99988C0.684059 6.99988 0.373938 6.97548 0.0712997 6.92846Z"/>
</mask>
<path d="M0.0712997 6.92846L0.224821 5.94031L-1.12684 5.73031L-0.916846 7.08198L0.0712997 6.92846ZM6.92846 0.0712997L7.08198 -0.916846L5.73031 -1.12684L5.94031 0.224821L6.92846 0.0712997ZM5.99988 10.9999C3.50256 10.9999 1.43125 9.16806 1.05945 6.77494L-0.916846 7.08198C-0.396002 10.4344 2.50141 12.9999 5.99988 12.9999V10.9999ZM10.9999 5.99988C10.9999 8.7613 8.7613 10.9999 5.99988 10.9999V12.9999C9.86587 12.9999 12.9999 9.86587 12.9999 5.99988H10.9999ZM6.77494 1.05945C9.16806 1.43125 10.9999 3.50256 10.9999 5.99988H12.9999C12.9999 2.50141 10.4344 -0.396002 7.08198 -0.916846L6.77494 1.05945ZM5.94031 0.224821C5.97947 0.476847 5.99988 0.735643 5.99988 0.999878H7.99988C7.99988 0.632474 7.97149 0.27103 7.9166 -0.082222L5.94031 0.224821ZM5.99988 0.999878C5.99988 3.7613 3.7613 5.99988 0.999878 5.99988V7.99988C4.86587 7.99988 7.99988 4.86587 7.99988 0.999878H5.99988ZM0.999878 5.99988C0.735643 5.99988 0.476847 5.97947 0.224821 5.94031L-0.082222 7.9166C0.27103 7.97149 0.632474 7.99988 0.999878 7.99988V5.99988Z" fill="white" mask="url(#path-1-inside-1_90_9)"/>
</svg>
