<svg width="23" height="23" viewBox="0 0 23 23" fill="none" xmlns="http://www.w3.org/2000/svg">
<path fill-rule="evenodd" clip-rule="evenodd" d="M21.7222 11.5C21.7222 17.1456 17.1456 21.7222 11.5 21.7222C5.85442 21.7222 1.27778 17.1456 1.27778 11.5C1.27778 5.85442 5.85442 1.27778 11.5 1.27778C17.1456 1.27778 21.7222 5.85442 21.7222 11.5ZM23 11.5C23 17.8513 17.8513 23 11.5 23C5.14873 23 0 17.8513 0 11.5C0 5.14873 5.14873 0 11.5 0C17.8513 0 23 5.14873 23 11.5ZM9.20878 9.99134L9.20877 9.99138L12.1925 12.5811L12.1926 12.5811L14.5853 6.81051L9.20878 9.99134ZM8.42975 9.27268C8.42028 9.27828 8.41186 9.28534 8.40474 9.29354L8.40062 9.28996L8.38841 9.3194C8.39254 9.30995 8.39806 9.30124 8.40474 9.29354L4.8284 17.9051C4.82343 17.9171 4.82087 17.929 4.82036 17.9405C4.81701 18.0156 4.90104 18.0745 4.97386 18.0314L8.85624 15.7345L13.0007 13.2826L12.9966 13.279C13.0037 13.2708 13.0095 13.2614 13.0137 13.2513L16.0416 5.94899L16.2241 5.50868L16.5438 4.7377L16.573 4.66737C16.6103 4.57725 16.5115 4.49143 16.4275 4.54111L16.362 4.57988L15.6436 5.00485L15.2334 5.24756L8.42975 9.27268Z" fill="white"/>
</svg>
