<svg width="34" height="30" viewBox="0 0 34 30" fill="none" xmlns="http://www.w3.org/2000/svg">
<mask id="path-1-outside-1_63_32" maskUnits="userSpaceOnUse" x="0.929504" y="0.914062" width="33" height="29" fill="black">
<rect fill="white" x="0.929504" y="0.914062" width="33" height="29"/>
<path fill-rule="evenodd" clip-rule="evenodd" d="M17.0173 8.5859L19.8798 5.79211C22.2512 3.4776 26.0499 3.52376 28.3644 5.8952C30.6789 8.26664 30.6328 12.0654 28.2614 14.3799L16.811 25.5553L8.42946 16.9675L8.42952 16.9675L5.63563 14.1048C3.32113 11.7334 3.36728 7.9347 5.73872 5.62019C8.11016 3.30569 11.9089 3.35184 14.2234 5.72328L17.0173 8.5859Z"/>
</mask>
<path d="M17.0173 8.5859L14.8703 10.6813L16.9657 12.8282L19.1127 10.7328L17.0173 8.5859ZM19.8798 5.79211L21.9752 7.93905L21.9752 7.93905L19.8798 5.79211ZM28.3644 5.8952L26.2175 7.99059L26.2175 7.99059L28.3644 5.8952ZM28.2614 14.3799L30.3567 16.5268L30.3567 16.5268L28.2614 14.3799ZM16.811 25.5553L14.6641 27.6507L16.7595 29.7976L18.9064 27.7022L16.811 25.5553ZM8.42946 16.9675L6.34102 14.8138L4.18034 16.909L6.28252 19.0629L8.42946 16.9675ZM8.42952 16.9675L10.518 19.1212L12.6786 17.026L10.5765 14.8721L8.42952 16.9675ZM5.63563 14.1048L3.48869 16.2002L5.63563 14.1048ZM5.73872 5.62019L7.83411 7.76713L7.83411 7.76713L5.73872 5.62019ZM14.2234 5.72328L12.0764 7.81867L12.0764 7.81868L14.2234 5.72328ZM19.1127 10.7328L21.9752 7.93905L17.7844 3.64517L14.9219 6.43897L19.1127 10.7328ZM21.9752 7.93905C23.1609 6.78179 25.0603 6.80487 26.2175 7.99059L30.5114 3.79981C27.0396 0.242649 21.3416 0.173415 17.7844 3.64517L21.9752 7.93905ZM26.2175 7.99059C27.3748 9.17631 27.3517 11.0757 26.166 12.2329L30.3567 16.5268C33.9139 13.055 33.9831 7.35697 30.5114 3.79981L26.2175 7.99059ZM26.166 12.2329L14.7156 23.4083L18.9064 27.7022L30.3567 16.5268L26.166 12.2329ZM18.958 23.4599L10.5764 14.8721L6.28252 19.0629L14.6641 27.6507L18.958 23.4599ZM10.5179 19.1212L10.518 19.1212L6.34108 14.8138L6.34102 14.8138L10.5179 19.1212ZM10.5765 14.8721L7.78257 12.0095L3.48869 16.2002L6.28258 19.0629L10.5765 14.8721ZM7.78257 12.0095C6.62531 10.8237 6.64839 8.92438 7.83411 7.76713L3.64333 3.47326C0.0861697 6.94501 0.0169363 12.6431 3.48869 16.2002L7.78257 12.0095ZM7.83411 7.76713C9.01983 6.60988 10.9192 6.63295 12.0764 7.81867L16.3703 3.62789C12.8986 0.0707321 7.20049 0.00149879 3.64333 3.47326L7.83411 7.76713ZM12.0764 7.81868L14.8703 10.6813L19.1642 6.49051L16.3703 3.62789L12.0764 7.81868Z" fill="white" mask="url(#path-1-outside-1_63_32)"/>
</svg>
