<svg width="22" height="23" viewBox="0 0 22 23" fill="none" xmlns="http://www.w3.org/2000/svg">
<path fill-rule="evenodd" clip-rule="evenodd" d="M22 11C22 17.0751 17.0751 22 11 22C9.30575 22 7.70097 21.617 6.26752 20.9328L3.76651 21.9732C3.20078 22.2085 2.59133 21.7465 2.66506 21.1382L2.98122 18.5299C1.13248 16.5619 0 13.9132 0 11C0 4.92487 4.92487 0 11 0C17.0751 0 22 4.92487 22 11ZM11 20C15.9706 20 20 15.9706 20 11C20 6.02944 15.9706 2 11 2C6.02944 2 2 6.02944 2 11C2 15.9706 6.02944 20 11 20ZM8.58244 7.32425C8.70873 7.14312 8.95795 7.09868 9.13907 7.22497L13.0784 10.7727L16.1912 9.24974C16.4013 9.21053 16.5181 9.48401 16.3445 9.60865L13.9394 13.479L13.929 13.5398C13.9059 13.5729 13.8787 13.6014 13.8486 13.6252C13.7139 13.7314 13.5204 13.7423 13.3723 13.639L9.38859 10.0514L6.33565 12.7784C6.12875 12.832 5.99342 12.5672 6.15804 12.4309L8.58244 7.32425Z" fill="white"/>
</svg>
