<svg width="22" height="22" viewBox="0 0 22 22" fill="none" xmlns="http://www.w3.org/2000/svg">
<path fill-rule="evenodd" clip-rule="evenodd" d="M4.0337 1.22231H3.66667C2.31664 1.22231 1.22222 2.31672 1.22222 3.66675V6.11116H7.81667L4.0337 1.22231ZM9.36207 6.11116H16.3722L12.5893 1.22231H5.57911L9.36207 6.11116ZM20.7778 6.11116H17.9176L14.1347 1.22231H18.3333C19.6834 1.22231 20.7778 2.31672 20.7778 3.66675V6.11116ZM18.3333 8.32e-05H13.1889L13.1888 0L13.1887 8.32e-05H4.63336L4.63329 0L4.63319 8.32e-05H3.66667C1.64162 8.32e-05 0 1.64171 0 3.66675V6.11116V7.33338V18.3334C0 20.3585 1.64162 22.0001 3.66667 22.0001H18.3333C20.3584 22.0001 22 20.3585 22 18.3334V7.33338V6.11116V3.66675C22 1.64171 20.3584 8.32e-05 18.3333 8.32e-05ZM20.7778 18.3334V7.33338H1.22222V18.3334C1.22222 19.6834 2.31664 20.7779 3.66667 20.7779H18.3333C19.6834 20.7779 20.7778 19.6834 20.7778 18.3334ZM14.2852 14.4732C15.035 13.9923 15.035 12.8967 14.2852 12.4157L9.52105 9.35952C8.70759 8.83768 7.63889 9.42181 7.63889 10.3883V16.5007C7.63889 17.4672 8.70759 18.0513 9.52105 17.5295L14.2852 14.4732Z" fill="white"/>
</svg>
