<svg width="25" height="26" viewBox="0 0 25 26" fill="none" xmlns="http://www.w3.org/2000/svg">
<path fill-rule="evenodd" clip-rule="evenodd" d="M18.8875 10.5826C18.8875 15.1693 15.1693 18.8875 10.5826 18.8875C5.99592 18.8875 2.27768 15.1693 2.27768 10.5826C2.27768 5.99592 5.99592 2.27768 10.5826 2.27768C15.1693 2.27768 18.8875 5.99592 18.8875 10.5826ZM16.5303 18.0965C14.8962 19.3917 12.8297 20.1652 10.5826 20.1652C5.29028 20.1652 1 15.8749 1 10.5826C1 5.29028 5.29028 1 10.5826 1C15.8749 1 20.1652 5.29028 20.1652 10.5826C20.1652 13.1679 19.1414 15.514 17.4772 17.2378L24.0063 24.0063L23.0868 24.8934L16.5303 18.0965Z" fill="white"/>
<path d="M16.5303 18.0965L16.8901 17.7494L16.5752 17.4229L16.2197 17.7047L16.5303 18.0965ZM17.4772 17.2378L17.1175 16.8905L16.7823 17.2376L17.1173 17.5849L17.4772 17.2378ZM24.0063 24.0063L24.3535 24.3662L24.7133 24.0191L24.3662 23.6592L24.0063 24.0063ZM23.0868 24.8934L22.7269 25.2405L23.074 25.6004L23.4339 25.2533L23.0868 24.8934ZM10.5826 19.3875C15.4454 19.3875 19.3875 15.4454 19.3875 10.5826H18.3875C18.3875 14.8931 14.8931 18.3875 10.5826 18.3875V19.3875ZM1.77768 10.5826C1.77768 15.4454 5.71978 19.3875 10.5826 19.3875V18.3875C6.27206 18.3875 2.77768 14.8931 2.77768 10.5826H1.77768ZM10.5826 1.77768C5.71978 1.77768 1.77768 5.71978 1.77768 10.5826H2.77768C2.77768 6.27206 6.27206 2.77768 10.5826 2.77768V1.77768ZM19.3875 10.5826C19.3875 5.71978 15.4454 1.77768 10.5826 1.77768V2.77768C14.8931 2.77768 18.3875 6.27206 18.3875 10.5826H19.3875ZM10.5826 20.6652C12.9465 20.6652 15.1216 19.8511 16.8409 18.4883L16.2197 17.7047C14.6708 18.9324 12.713 19.6652 10.5826 19.6652V20.6652ZM0.5 10.5826C0.5 16.1511 5.01413 20.6652 10.5826 20.6652V19.6652C5.56642 19.6652 1.5 15.5988 1.5 10.5826H0.5ZM10.5826 0.5C5.01413 0.5 0.5 5.01413 0.5 10.5826H1.5C1.5 5.56642 5.56642 1.5 10.5826 1.5V0.5ZM20.6652 10.5826C20.6652 5.01413 16.1511 0.5 10.5826 0.5V1.5C15.5988 1.5 19.6652 5.56642 19.6652 10.5826H20.6652ZM17.8369 17.5851C19.5875 15.7719 20.6652 13.3026 20.6652 10.5826H19.6652C19.6652 13.0332 18.6953 15.2562 17.1175 16.8905L17.8369 17.5851ZM17.1173 17.5849L23.6465 24.3535L24.3662 23.6592L17.837 16.8906L17.1173 17.5849ZM23.6592 23.6465L22.7396 24.5335L23.4339 25.2533L24.3535 24.3662L23.6592 23.6465ZM23.4466 24.5463L16.8901 17.7494L16.1704 18.4436L22.7269 25.2405L23.4466 24.5463Z" fill="white"/>
</svg>
